<?xml version="1.0" encoding="UTF-8" standalone="no"?>
<svg
   id="svg35"
   height="545.78967"
   width="545.7514"
   viewBox="0 0 545.7514 545.78967"
   preserveAspectRatio="xMidYMid meet"
   version="1.1">
  <metadata
     id="metadata39">
  </metadata>
  <defs
     id="defs13">
    <path
       id="bfeULIAfn"
       d="m 592.87,104.33 0.35,0.03 0.35,0.06 0.35,0.06 0.34,0.08 0.34,0.1 0.33,0.11 0.32,0.12 0.31,0.14 0.31,0.15 0.3,0.17 0.3,0.17 0.28,0.19 0.28,0.2 0.27,0.21 0.25,0.23 0.25,0.23 0.24,0.24 0.23,0.25 0.21,0.27 0.21,0.27 0.19,0.28 0.19,0.29 0.17,0.3 0.15,0.3 0.15,0.32 0.13,0.32 0.12,0.32 0.1,0.34 0.09,0.34 0.07,0.34 0.06,0.35 0.04,0.36 0.03,0.36 0.01,0.36 -0.01,0.37 -0.02,0.37 -26.16,308.77 -0.1,1.05 -0.14,1.04 -0.18,1.02 -0.21,1.02 -0.24,1 -0.27,0.99 -0.31,0.98 -0.34,0.96 -0.37,0.95 -0.39,0.93 -0.43,0.91 -0.46,0.9 -0.48,0.89 -0.52,0.86 -0.54,0.85 -0.56,0.82 -0.6,0.81 -0.62,0.79 -0.64,0.77 -0.67,0.74 -0.69,0.73 -0.71,0.7 -0.74,0.67 -0.76,0.66 -0.78,0.62 -0.8,0.61 -0.83,0.58 -0.84,0.55 -0.86,0.52 -0.88,0.5 -0.9,0.47 -0.92,0.44 -0.93,0.41 -0.95,0.38 -0.97,0.35 -0.98,0.32 -0.99,0.28 -1.01,0.26 -1.03,0.22 -1.03,0.18 -1.08,0.17 -1.08,0.15 -1.08,0.14 -1.08,0.12 -1.08,0.11 -1.08,0.09 -1.08,0.08 -1.08,0.06 -1.09,0.04 -1.08,0.03 -1.08,0.02 h -1.08 l -1.08,-0.01 -1.08,-0.03 -1.08,-0.05 -1.08,-0.06 -1.08,-0.07 -1.07,-0.09 -1.08,-0.11 -1.07,-0.11 -1.07,-0.14 -1.07,-0.15 -1.07,-0.16 -1.06,-0.18 -1.07,-0.19 -1.06,-0.21 -1.05,-0.23 -1.06,-0.23 -1.05,-0.26 -1.05,-0.26 -1.04,-0.29 -1.05,-0.29 -1.03,-0.31 -1.04,-0.33 -1.03,-0.34 -1.02,-0.36 -1.03,-0.37 -1.01,-0.38 -1.02,-0.4 -1,-0.41 -18.09,-7.58 -1.52,-0.61 -1.53,-0.56 -1.53,-0.51 -1.55,-0.47 -1.55,-0.42 -1.56,-0.37 -1.56,-0.32 -1.57,-0.28 -1.57,-0.23 -1.58,-0.19 -1.57,-0.14 -1.58,-0.09 -1.58,-0.05 h -1.57 l -1.58,0.04 -1.57,0.09 -1.56,0.13 -1.56,0.18 -1.56,0.22 -1.54,0.26 -1.54,0.31 -1.53,0.36 -1.52,0.4 -1.51,0.44 -1.5,0.48 -1.48,0.53 -1.47,0.57 -1.45,0.62 -1.44,0.65 -1.42,0.7 -1.4,0.75 -1.38,0.78 -1.37,0.82 -1.34,0.87 -1.32,0.91 -1.29,0.95 -1.27,0.99 -1.25,1.04 -1.22,1.07 -1.2,1.12 -47.62,45.79 -59.11,59.11 -0.33,0.34 -0.33,0.34 -0.32,0.36 -0.32,0.35 -0.31,0.37 -0.3,0.36 -0.29,0.38 -0.29,0.37 -0.28,0.39 -0.27,0.38 -0.27,0.39 -0.26,0.4 -0.25,0.4 -0.24,0.4 -0.24,0.41 -0.23,0.42 -0.22,0.41 -0.21,0.42 -0.21,0.43 -0.2,0.42 -0.19,0.43 -0.18,0.44 -0.18,0.43 -0.17,0.45 -0.16,0.44 -0.15,0.45 -0.14,0.44 -0.14,0.46 -0.13,0.45 -0.12,0.46 -0.11,0.46 -0.11,0.46 -0.09,0.47 -0.09,0.46 -0.08,0.47 -0.07,0.47 -0.06,0.47 -0.06,0.48 -0.04,0.47 -0.04,0.48 -0.03,0.64 v 0.64 l 0.02,0.63 0.05,0.62 0.08,0.61 0.1,0.61 0.13,0.6 0.15,0.59 0.17,0.58 0.2,0.57 0.22,0.56 0.24,0.55 0.26,0.54 0.29,0.52 0.3,0.51 0.33,0.5 0.34,0.49 0.36,0.47 0.38,0.45 0.4,0.44 0.42,0.42 0.43,0.41 0.45,0.39 0.47,0.37 0.47,0.35 0.5,0.33 0.51,0.31 0.52,0.3 0.53,0.27 0.55,0.25 0.56,0.23 0.57,0.2 0.58,0.19 0.59,0.16 0.6,0.13 0.61,0.11 0.59,0.08 h -0.01 l -0.77,0.07 -0.78,0.05 -0.78,0.03 -0.78,0.02 5.05,-0.07 h -0.64 l -0.63,-0.04 -0.63,-0.06 h -0.03 l 0.76,-0.08 0.77,-0.1 0.77,-0.11 0.76,-0.12 0.76,-0.14 0.75,-0.16 0.75,-0.17 0.75,-0.19 0.74,-0.2 0.74,-0.21 0.73,-0.23 0.73,-0.25 0.72,-0.26 0.72,-0.27 0.71,-0.29 0.7,-0.3 0.7,-0.31 0.69,-0.33 0.69,-0.34 0.68,-0.36 0.67,-0.37 0.67,-0.38 0.65,-0.4 0.65,-0.41 0.64,-0.43 0.64,-0.43 0.62,-0.45 0.62,-0.46 0.61,-0.48 0.6,-0.49 0.59,-0.5 0.58,-0.51 0.57,-0.53 0.57,-0.54 0.55,-0.55 0.54,-0.56 2.93,-3.11 0.47,-0.48 0.47,-0.47 0.48,-0.47 0.49,-0.45 0.5,-0.44 0.5,-0.43 0.51,-0.43 0.52,-0.41 0.53,-0.4 0.53,-0.39 0.54,-0.38 0.55,-0.37 0.55,-0.36 0.56,-0.35 0.57,-0.33 0.57,-0.33 0.58,-0.31 0.59,-0.31 0.58,-0.29 0.6,-0.28 0.6,-0.27 0.61,-0.26 0.61,-0.25 0.61,-0.24 0.62,-0.22 0.62,-0.21 0.63,-0.2 0.63,-0.19 0.64,-0.18 0.64,-0.16 0.64,-0.16 0.65,-0.14 0.65,-0.13 0.65,-0.11 0.66,-0.1 0.66,-0.1 0.66,-0.07 0.67,-0.07 h 0.04 l -0.31,-0.01 -0.38,0.02 1.98,-0.1 -0.67,0.04 -0.62,0.05 h 0.07 l 0.38,0.01 0.37,0.03 0.37,0.04 0.37,0.06 0.36,0.07 0.36,0.08 0.35,0.1 0.35,0.1 0.35,0.12 0.33,0.13 0.34,0.15 0.32,0.15 0.32,0.17 0.32,0.17 0.31,0.19 0.3,0.2 0.29,0.21 0.28,0.22 0.28,0.22 0.27,0.24 0.26,0.25 0.25,0.26 0.25,0.26 0.23,0.28 0.23,0.28 0.21,0.29 0.21,0.3 0.19,0.31 0.18,0.31 0.18,0.33 0.16,0.33 0.15,0.33 0.14,0.35 0.12,0.35 0.11,0.36 0.11,0.36 0.08,0.37 0.08,0.37 0.92,5.14 0.06,0.35 0.06,0.36 0.04,0.36 0.03,0.36 0.03,0.36 0.01,0.36 0.01,0.36 v 0.36 l -0.01,0.35 -0.02,0.36 -0.03,0.35 -0.03,0.36 -0.05,0.35 -0.05,0.35 -0.06,0.35 -0.07,0.35 -0.08,0.35 -0.08,0.34 -0.1,0.34 -0.1,0.34 -0.11,0.34 -0.12,0.33 -0.12,0.33 -0.14,0.33 -0.14,0.32 -0.15,0.33 -0.15,0.31 -0.17,0.32 -0.17,0.31 -0.18,0.31 -0.19,0.3 -0.19,0.3 -0.21,0.29 -0.21,0.29 -0.22,0.29 -0.22,0.28 -0.23,0.28 -0.24,0.27 -0.25,0.26 -0.25,0.26 -2.8,2.8 -0.89,0.87 -0.9,0.85 -0.91,0.83 -0.93,0.81 -0.95,0.8 -0.95,0.77 -0.97,0.76 -0.99,0.73 -0.99,0.72 -1.01,0.69 -1.02,0.68 -1.03,0.65 -1.05,0.64 -1.05,0.61 -1.07,0.6 -1.08,0.57 -1.08,0.56 -1.1,0.53 -1.11,0.51 -1.11,0.49 -1.13,0.47 -1.13,0.45 -1.14,0.43 -1.15,0.4 -1.16,0.39 -1.17,0.36 -1.17,0.34 -1.18,0.31 -1.19,0.3 -1.19,0.27 -1.2,0.25 -1.21,0.23 -1.21,0.21 -1.21,0.18 -1.22,0.16 -1.23,0.13 -1.22,0.12 -1.24,0.09 -1.23,0.06 -1.24,0.04 -25.71,0.63 -0.87,0.01 -0.86,-0.04 -0.85,-0.06 -0.84,-0.1 -0.83,-0.13 -0.83,-0.16 -0.8,-0.2 -0.8,-0.22 -0.78,-0.26 -0.78,-0.29 -0.75,-0.31 -0.74,-0.34 -0.73,-0.37 -0.71,-0.4 -0.69,-0.42 -0.68,-0.45 -0.65,-0.47 -0.64,-0.5 -0.62,-0.52 -0.59,-0.54 -0.58,-0.57 -0.56,-0.59 -0.53,-0.61 -0.51,-0.63 -0.48,-0.65 -0.46,-0.66 -0.44,-0.69 -0.41,-0.71 -0.38,-0.72 -0.35,-0.73 -0.33,-0.76 -0.3,-0.77 -0.27,-0.78 -0.24,-0.8 -0.21,-0.81 -0.17,-0.82 -0.15,-0.83 -0.11,-0.85 -0.08,-0.86 -0.04,-0.86 -0.57,-18.33 -0.03,-1.4 v -1.4 l 0.03,-1.39 0.06,-1.39 0.08,-1.39 0.12,-1.38 0.14,-1.38 0.17,-1.38 0.2,-1.36 0.22,-1.36 0.25,-1.36 0.28,-1.35 0.31,-1.34 0.34,-1.34 0.36,-1.32 0.39,-1.32 0.41,-1.31 0.44,-1.3 0.47,-1.29 0.49,-1.28 0.52,-1.27 0.54,-1.26 0.57,-1.25 0.6,-1.24 0.62,-1.23 0.64,-1.21 0.67,-1.2 0.7,-1.19 0.72,-1.18 0.74,-1.16 0.77,-1.14 0.79,-1.14 0.82,-1.11 0.84,-1.1 0.86,-1.09 0.89,-1.07 0.91,-1.05 0.94,-1.04 0.95,-1.02 0.98,-1 27.38,-27.37 -23.34,-23.33 -123.39,122.08 -0.47,0.47 -0.46,0.48 -0.45,0.5 -0.44,0.5 -0.43,0.5 -0.42,0.52 -0.4,0.52 -0.4,0.53 -0.39,0.53 -0.37,0.55 -0.37,0.55 -0.35,0.55 -0.35,0.56 -0.33,0.57 -0.32,0.58 -0.31,0.58 -0.29,0.58 -0.29,0.6 -0.28,0.59 -0.26,0.6 -0.25,0.61 -0.24,0.61 -0.23,0.62 -0.21,0.62 -0.21,0.62 -0.19,0.63 -0.18,0.64 -0.17,0.63 -0.15,0.64 -0.15,0.65 -0.13,0.65 -0.12,0.65 -0.1,0.65 -0.1,0.65 -0.08,0.66 -0.07,0.66 -0.05,0.67 -0.04,0.66 -0.02,0.39 0.02,0.41 0.04,0.49 0.06,0.49 0.08,0.47 0.1,0.48 0.11,0.46 0.13,0.46 0.15,0.45 0.17,0.44 0.18,0.44 0.2,0.42 0.22,0.42 0.23,0.41 0.24,0.39 0.26,0.39 0.27,0.38 0.29,0.37 0.3,0.35 0.31,0.35 0.33,0.33 0.34,0.32 0.35,0.3 0.36,0.3 0.37,0.28 0.38,0.26 0.4,0.26 0.4,0.23 0.42,0.22 0.42,0.21 0.43,0.19 0.45,0.18 0.45,0.15 0.45,0.14 0.47,0.13 0.47,0.1 0.43,0.08 h -0.1 l -0.85,0.02 -0.85,-0.01 -0.85,-0.02 4.17,0.17 -0.49,-0.03 -0.49,-0.05 -0.49,-0.07 -0.05,-0.01 0.74,-0.03 0.84,-0.05 0.84,-0.07 0.84,-0.09 0.83,-0.11 0.83,-0.13 0.82,-0.15 0.82,-0.16 0.82,-0.18 0.81,-0.2 0.8,-0.22 0.8,-0.24 0.79,-0.25 0.79,-0.28 0.78,-0.29 0.77,-0.3 0.77,-0.33 0.75,-0.34 0.75,-0.36 0.75,-0.37 0.73,-0.4 0.73,-0.4 0.71,-0.43 0.71,-0.44 0.7,-0.46 0.68,-0.47 0.68,-0.49 0.67,-0.51 0.65,-0.52 0.65,-0.54 0.63,-0.55 0.63,-0.57 0.61,-0.58 0.59,-0.6 0.59,-0.61 0.57,-0.63 0.56,-0.64 1.78,-2.09 0.14,-0.15 0.13,-0.15 0.14,-0.15 0.15,-0.14 0.14,-0.13 0.15,-0.14 0.15,-0.13 0.16,-0.12 0.15,-0.13 0.16,-0.11 0.17,-0.12 0.16,-0.11 0.17,-0.1 0.17,-0.11 0.17,-0.09 0.17,-0.1 0.18,-0.09 0.18,-0.08 0.18,-0.08 0.18,-0.08 0.18,-0.07 0.19,-0.07 0.19,-0.06 0.18,-0.06 0.19,-0.06 0.19,-0.05 0.2,-0.04 0.19,-0.05 0.2,-0.03 0.19,-0.03 0.2,-0.03 0.2,-0.02 0.19,-0.02 0.2,-0.02 h 0.2 l 0.2,-0.01 h 0.21 l 0.2,0.01 0.2,0.01 0.2,0.02 3.21,0.29 0.53,0.05 0.52,0.08 0.51,0.09 0.51,0.11 0.51,0.12 0.49,0.14 0.5,0.15 0.48,0.18 0.48,0.18 0.47,0.2 0.46,0.22 0.45,0.23 0.44,0.24 0.44,0.26 0.43,0.27 0.42,0.28 0.4,0.3 0.4,0.31 0.39,0.32 0.38,0.34 0.36,0.34 0.36,0.36 0.34,0.37 0.33,0.38 0.32,0.39 0.31,0.4 0.29,0.41 0.29,0.43 0.26,0.43 0.26,0.44 0.24,0.45 0.23,0.46 0.21,0.46 0.2,0.48 0.18,0.48 0.17,0.49 0.15,0.5 0.13,0.51 0.12,0.51 0.11,0.52 0.38,2.14 0.06,0.36 0.05,0.36 0.05,0.36 0.03,0.37 0.03,0.36 0.02,0.36 0.01,0.36 v 0.36 l -0.01,0.36 -0.01,0.36 -0.03,0.35 -0.03,0.36 -0.04,0.36 -0.05,0.35 -0.05,0.35 -0.07,0.35 -0.07,0.35 -0.08,0.35 -0.09,0.35 -0.09,0.34 -0.11,0.34 -0.11,0.34 -0.12,0.34 -0.12,0.33 -0.14,0.33 -0.14,0.33 -0.15,0.32 -0.16,0.32 -0.16,0.32 -0.18,0.32 -0.17,0.31 -0.19,0.3 -0.2,0.31 -0.2,0.3 -0.21,0.29 -0.21,0.29 -0.23,0.29 -0.23,0.28 -0.24,0.27 -0.24,0.28 -0.57,0.6 -0.58,0.59 -0.59,0.58 -0.59,0.56 -0.61,0.55 -0.62,0.54 -0.63,0.53 -0.64,0.51 -0.65,0.5 -0.66,0.49 -0.66,0.47 -0.68,0.46 -0.68,0.44 -0.69,0.43 -0.7,0.42 -0.71,0.41 -0.71,0.39 -0.72,0.37 -0.73,0.36 -0.73,0.35 -0.75,0.33 -0.75,0.32 -0.75,0.3 -0.76,0.29 -0.77,0.27 -0.77,0.26 -0.78,0.24 -0.78,0.23 -0.79,0.22 -0.79,0.19 -0.8,0.19 -0.8,0.16 -0.8,0.15 -0.81,0.14 -0.81,0.12 -0.82,0.1 -0.82,0.09 -0.82,0.07 -0.82,0.05 -0.83,0.04 -12.95,0.47 -1.64,0.03 -1.62,-0.03 -1.61,-0.09 -1.59,-0.15 -1.58,-0.2 -1.57,-0.26 -1.54,-0.31 -1.53,-0.37 -1.51,-0.42 -1.49,-0.47 -1.47,-0.53 -1.44,-0.57 -1.42,-0.63 -1.4,-0.67 -1.36,-0.72 -1.34,-0.76 -1.32,-0.81 -1.28,-0.86 -1.25,-0.9 -1.22,-0.94 -1.18,-0.99 -1.15,-1.02 -1.11,-1.06 -1.08,-1.11 -1.04,-1.14 -1,-1.18 -0.96,-1.21 -0.91,-1.25 -0.88,-1.29 -0.83,-1.32 -0.78,-1.35 -0.74,-1.38 -0.69,-1.41 -0.65,-1.44 -0.59,-1.48 -0.54,-1.49 -0.49,-1.53 -0.44,-1.55 -0.38,-1.58 -0.32,-1.6 -0.93,-4.99 -0.18,-1.06 -0.16,-1.07 -0.13,-1.07 -0.1,-1.06 -0.08,-1.07 -0.05,-1.06 -0.03,-1.07 v -1.06 l 0.03,-1.06 0.05,-1.06 0.07,-1.05 0.11,-1.05 0.12,-1.05 0.15,-1.04 0.18,-1.04 0.2,-1.04 0.22,-1.02 0.25,-1.03 0.28,-1.01 0.29,-1.01 0.33,-1 0.34,-0.99 0.37,-0.99 0.39,-0.97 0.42,-0.97 0.44,-0.96 0.46,-0.95 0.48,-0.93 0.51,-0.93 0.53,-0.91 0.56,-0.91 0.57,-0.89 0.6,-0.87 0.62,-0.87 0.64,-0.85 0.67,-0.84 0.68,-0.82 0.71,-0.81 0.73,-0.79 0.75,-0.78 124.51,-125.76 -22.62,-22.63 -113.8,113.8 -1.09,1.07 -1.12,1.04 -1.13,1.02 -1.15,0.99 -1.17,0.96 -1.18,0.94 -1.21,0.91 -1.22,0.88 -1.24,0.86 -1.26,0.83 -1.27,0.8 -1.29,0.78 -1.3,0.74 -1.31,0.72 -1.33,0.69 -1.35,0.67 -1.35,0.63 -1.37,0.6 -1.38,0.58 -1.4,0.55 -1.4,0.51 -1.41,0.49 -1.43,0.46 -1.43,0.43 -1.45,0.4 -1.45,0.37 -1.46,0.33 -1.47,0.31 -1.48,0.28 -1.48,0.25 -1.49,0.21 -1.49,0.18 -1.5,0.16 -1.51,0.12 -1.51,0.09 -1.52,0.05 -1.51,0.03 -1.53,-0.01 -1.52,-0.04 -1.53,-0.07 -1.54,-0.12 -1.52,-0.16 -1.52,-0.22 -1.49,-0.26 -1.48,-0.31 -1.47,-0.35 -1.45,-0.41 -1.43,-0.45 -1.41,-0.49 -1.39,-0.54 -1.36,-0.57 -1.35,-0.63 -1.32,-0.66 -1.3,-0.7 -1.28,-0.75 -1.25,-0.78 -1.22,-0.82 -1.19,-0.86 -1.17,-0.9 -1.14,-0.93 -1.11,-0.97 -1.07,-1.01 -1.05,-1.03 -1.01,-1.07 -0.98,-1.11 -0.94,-1.13 -0.91,-1.17 -0.87,-1.19 -0.83,-1.23 -0.8,-1.25 -0.76,-1.29 -0.72,-1.31 -0.67,-1.33 -0.64,-1.36 -0.59,-1.39 -0.55,-1.41 -0.51,-1.44 -0.46,-1.45 -0.41,-1.48 -0.37,-1.5 -0.62,-2.75 -0.21,-0.98 -0.19,-0.99 -0.16,-0.99 -0.14,-0.99 -0.12,-0.99 -0.09,-0.99 -0.07,-0.99 -0.04,-0.99 -0.02,-0.99 v -0.99 l 0.02,-0.99 0.05,-0.98 0.07,-0.99 0.1,-0.98 0.11,-0.97 0.14,-0.98 0.16,-0.97 0.19,-0.96 0.2,-0.96 0.23,-0.96 0.25,-0.94 0.28,-0.95 0.29,-0.93 0.32,-0.93 0.34,-0.93 0.36,-0.91 0.38,-0.91 0.4,-0.9 0.42,-0.89 0.45,-0.88 0.47,-0.87 0.48,-0.86 0.51,-0.86 0.53,-0.84 0.55,-0.83 0.57,-0.81 0.6,-0.81 0.61,-0.79 0.63,-0.78 0.65,-0.77 8.37,-9.61 0.3,-0.33 0.3,-0.33 0.31,-0.31 0.32,-0.31 0.32,-0.29 0.33,-0.29 0.33,-0.28 0.34,-0.27 0.35,-0.27 0.35,-0.25 0.36,-0.25 0.37,-0.23 0.36,-0.23 0.38,-0.22 0.38,-0.21 0.38,-0.2 0.39,-0.19 0.39,-0.18 0.4,-0.17 0.4,-0.16 0.4,-0.15 0.41,-0.15 0.41,-0.13 0.41,-0.13 0.42,-0.11 0.42,-0.1 0.42,-0.1 0.42,-0.08 0.43,-0.07 0.43,-0.07 0.43,-0.05 0.43,-0.04 0.44,-0.04 0.44,-0.02 0.43,-0.01 h 0.44 l 0.44,0.01 0.44,0.02 0.44,0.03 0.44,0.04 1.43,0.15 0.39,0.05 0.4,0.06 0.39,0.08 0.39,0.08 0.38,0.1 0.37,0.11 0.37,0.12 0.37,0.14 0.36,0.14 0.36,0.16 0.35,0.16 0.34,0.18 0.34,0.19 0.33,0.2 0.32,0.2 0.31,0.22 0.31,0.23 0.31,0.24 0.29,0.24 0.29,0.26 0.27,0.26 0.27,0.27 0.26,0.28 0.26,0.29 0.24,0.3 0.23,0.3 0.23,0.31 0.21,0.32 0.21,0.33 0.19,0.33 0.19,0.34 0.17,0.35 0.17,0.36 0.15,0.36 0.14,0.36 0.13,0.37 0.12,0.38 0.11,0.38 0.09,0.39 0.09,0.39 0.12,0.64 0.1,0.59 0.1,0.58 0.07,0.59 0.07,0.58 0.05,0.59 0.03,0.59 0.02,0.58 0.01,0.59 -0.01,0.58 -0.02,0.58 -0.04,0.58 -0.04,0.58 -0.07,0.58 -0.07,0.57 -0.09,0.58 -0.1,0.57 -0.12,0.57 -0.13,0.56 -0.14,0.56 -0.16,0.56 -0.16,0.55 -0.19,0.55 -0.19,0.55 -0.21,0.54 -0.22,0.53 -0.23,0.53 -0.25,0.53 -0.25,0.52 -0.28,0.51 -0.28,0.51 -0.29,0.51 -0.31,0.49 -0.32,0.49 -0.33,0.48 -0.35,0.48 -0.35,0.47 -0.37,0.46 -0.38,0.45 -0.39,0.44 -0.41,0.44 -9.83,10.37 -0.33,0.36 -0.32,0.36 -0.3,0.38 -0.3,0.38 -0.29,0.38 -0.27,0.4 -0.26,0.4 -0.25,0.4 -0.24,0.41 -0.23,0.42 -0.22,0.42 -0.2,0.43 -0.19,0.43 -0.19,0.44 -0.16,0.44 -0.16,0.45 -0.15,0.45 -0.13,0.45 -0.12,0.45 -0.11,0.46 -0.09,0.46 -0.09,0.47 -0.07,0.46 -0.06,0.47 -0.04,0.47 -0.04,0.47 -0.02,0.48 -0.01,0.47 0.01,0.47 0.01,0.48 0.03,0.47 0.05,0.48 0.05,0.47 0.07,0.47 0.08,0.48 0.1,0.47 0.11,0.47 0.12,0.47 0.13,0.46 0.15,0.47 0.44,1.33 0.12,0.32 0.12,0.32 0.14,0.3 0.15,0.3 0.16,0.3 0.16,0.28 0.18,0.28 0.19,0.26 0.2,0.26 0.2,0.26 0.22,0.24 0.22,0.23 0.23,0.23 0.24,0.21 0.25,0.21 0.25,0.2 0.26,0.18 0.27,0.18 0.27,0.17 0.28,0.16 0.28,0.14 0.29,0.14 0.3,0.12 0.29,0.12 0.31,0.1 0.31,0.1 0.31,0.08 0.31,0.07 0.32,0.05 0.32,0.05 0.32,0.04 0.33,0.02 0.33,0.01 0.32,-0.01 0.33,-0.01 0.34,-0.03 0.33,-0.04 0.33,-0.05 0.2,-0.04 0.45,-0.13 0.87,-0.26 0.87,-0.28 0.86,-0.28 0.86,-0.3 0.85,-0.3 0.85,-0.32 0.85,-0.33 0.84,-0.34 0.83,-0.35 0.83,-0.36 0.83,-0.37 0.82,-0.39 0.81,-0.39 0.81,-0.4 0.8,-0.42 0.8,-0.42 0.8,-0.44 0.78,-0.44 0.78,-0.46 0.78,-0.47 0.77,-0.47 0.76,-0.49 0.75,-0.5 0.75,-0.5 0.75,-0.52 0.73,-0.53 0.73,-0.53 0.72,-0.55 0.72,-0.55 0.71,-0.57 0.7,-0.57 0.7,-0.59 0.68,-0.59 0.68,-0.6 0.67,-0.62 0.67,-0.62 0.66,-0.63 0.64,-0.64 119.46,-119.46 -22.27,-22.27 -21.85,21.85 -1.09,1.06 -1.1,1.04 -1.12,1.02 -1.14,0.99 -1.15,0.97 -1.18,0.94 -1.18,0.92 -1.21,0.9 -1.22,0.87 -1.24,0.84 -1.25,0.83 -1.26,0.79 -1.28,0.77 -1.3,0.75 -1.31,0.72 -1.32,0.7 -1.33,0.67 -1.34,0.64 -1.36,0.62 -1.37,0.59 -1.38,0.56 -1.39,0.54 -1.4,0.51 -1.41,0.48 -1.42,0.46 -1.43,0.43 -1.44,0.4 -1.45,0.37 -1.45,0.35 -1.47,0.32 -1.47,0.29 -1.47,0.26 -1.49,0.24 -1.48,0.2 -1.5,0.18 -1.5,0.15 -1.5,0.11 -1.51,0.09 -1.52,0.06 -1.51,0.03 -17.47,0.18 -0.91,-0.01 -0.9,-0.04 -0.9,-0.07 -0.88,-0.1 -0.88,-0.13 -0.87,-0.16 -0.86,-0.19 -0.85,-0.22 -0.84,-0.25 -0.82,-0.28 -0.82,-0.3 -0.8,-0.33 -0.78,-0.36 -0.78,-0.38 -0.76,-0.41 -0.74,-0.44 -0.73,-0.46 -0.71,-0.48 -0.69,-0.5 -0.68,-0.53 -0.66,-0.56 -0.64,-0.57 -0.62,-0.59 -0.6,-0.62 -0.58,-0.64 -0.56,-0.66 -0.53,-0.67 -0.52,-0.7 -0.49,-0.71 -0.47,-0.74 -0.44,-0.75 -0.42,-0.76 -0.39,-0.79 -0.36,-0.8 -0.34,-0.81 -0.31,-0.84 -0.29,-0.84 -0.25,-0.86 -0.23,-0.88 -0.19,-0.88 -4.99,-24.63 -0.14,-0.75 -0.12,-0.76 -0.11,-0.75 -0.08,-0.75 -0.07,-0.75 -0.04,-0.76 -0.03,-0.75 -0.01,-0.75 0.01,-0.75 0.02,-0.74 0.05,-0.75 0.06,-0.74 0.08,-0.74 0.1,-0.74 0.12,-0.74 0.14,-0.73 0.15,-0.72 0.17,-0.73 0.19,-0.72 0.2,-0.71 0.23,-0.71 0.24,-0.7 0.26,-0.7 0.27,-0.69 0.29,-0.68 0.31,-0.68 0.32,-0.67 0.35,-0.66 0.35,-0.65 0.38,-0.65 0.39,-0.64 0.41,-0.63 0.42,-0.62 0.44,-0.61 0.45,-0.6 0.47,-0.59 0.49,-0.58 0.5,-0.57 0.52,-0.56 0.53,-0.54 17.37,-17.37 0.41,-0.4 0.42,-0.39 0.42,-0.37 0.43,-0.37 0.44,-0.35 0.45,-0.35 0.45,-0.33 0.46,-0.32 0.47,-0.31 0.47,-0.3 0.48,-0.28 0.49,-0.28 0.49,-0.26 0.49,-0.25 0.51,-0.24 0.5,-0.23 0.52,-0.21 0.51,-0.21 0.53,-0.19 0.52,-0.18 0.53,-0.16 0.53,-0.16 0.54,-0.14 0.54,-0.13 0.55,-0.12 0.54,-0.1 0.55,-0.09 0.55,-0.08 0.56,-0.07 0.55,-0.05 0.56,-0.04 0.56,-0.03 0.56,-0.02 h 0.56 l 0.57,0.01 0.56,0.03 0.56,0.04 0.57,0.05 0.1,0.02 0.46,0.11 0.46,0.13 0.46,0.14 0.44,0.16 0.44,0.17 0.44,0.18 0.42,0.2 0.42,0.21 0.41,0.22 0.4,0.24 0.39,0.24 0.38,0.27 0.37,0.27 0.37,0.28 0.35,0.3 0.35,0.3 0.33,0.32 0.32,0.33 0.32,0.34 0.3,0.35 0.29,0.35 0.28,0.37 0.27,0.38 0.25,0.38 0.25,0.4 0.23,0.4 0.22,0.41 0.2,0.42 0.19,0.42 0.18,0.44 0.16,0.44 0.15,0.44 0.14,0.45 0.12,0.46 0.11,0.47 0.06,0.32 0.01,0.17 0.01,0.54 v 0.54 l -0.01,0.54 -0.02,0.53 -0.03,0.54 -0.04,0.53 -0.06,0.53 -0.07,0.53 -0.08,0.53 -0.09,0.53 -0.11,0.52 -0.11,0.52 -0.13,0.52 -0.14,0.51 -0.14,0.51 -0.16,0.51 -0.18,0.5 -0.18,0.5 -0.19,0.5 -0.21,0.49 -0.21,0.49 -0.23,0.48 -0.24,0.47 -0.24,0.48 -0.26,0.46 -0.27,0.46 -0.28,0.46 -0.29,0.45 -0.3,0.44 -0.31,0.44 -0.32,0.43 -0.33,0.43 -0.34,0.42 -0.35,0.41 -0.36,0.4 -0.37,0.4 -0.38,0.39 -10.25,10.24 -0.54,0.55 -0.52,0.56 -0.51,0.57 -0.5,0.57 -0.49,0.59 -0.48,0.59 -0.46,0.6 -0.45,0.61 -0.43,0.62 -0.43,0.63 -0.41,0.63 -0.4,0.65 -0.38,0.65 -0.37,0.65 -0.36,0.67 -0.34,0.67 -0.33,0.67 -0.32,0.69 -0.3,0.68 -0.29,0.7 -0.28,0.7 -0.26,0.71 -0.25,0.71 -0.23,0.71 -0.22,0.72 -0.21,0.73 -0.19,0.73 -0.17,0.73 -0.17,0.74 -0.14,0.74 -0.14,0.75 -0.11,0.75 -0.11,0.75 -0.08,0.75 -0.08,0.76 -0.05,0.76 -0.05,0.76 -0.02,0.76 -0.01,0.77 v 0.76 l 0.01,0.3 0.02,0.29 0.03,0.29 0.05,0.29 0.05,0.28 0.06,0.28 0.08,0.27 0.08,0.27 0.09,0.27 0.1,0.26 0.12,0.26 0.12,0.25 0.13,0.24 0.13,0.25 0.15,0.23 0.16,0.23 0.16,0.23 0.17,0.21 0.18,0.22 0.18,0.2 0.2,0.2 0.2,0.19 0.2,0.18 0.22,0.18 0.22,0.17 0.22,0.16 0.24,0.15 0.24,0.15 0.24,0.13 0.25,0.13 0.25,0.12 0.26,0.11 0.27,0.1 0.27,0.09 0.27,0.08 0.28,0.07 0.28,0.06 0.19,0.03 0.51,0.02 1.08,0.02 h 1.09 l 1.08,-0.03 1.08,-0.05 1.07,-0.07 1.08,-0.1 1.06,-0.12 1.07,-0.15 1.05,-0.17 1.06,-0.19 1.05,-0.22 1.04,-0.24 1.03,-0.26 1.03,-0.28 1.02,-0.31 1.02,-0.33 1,-0.35 1,-0.38 0.99,-0.4 0.98,-0.41 0.98,-0.44 0.96,-0.46 0.95,-0.49 0.94,-0.5 0.93,-0.53 0.92,-0.54 0.91,-0.57 0.9,-0.59 0.88,-0.61 0.87,-0.63 0.86,-0.65 0.84,-0.66 0.84,-0.69 0.81,-0.71 0.81,-0.73 0.78,-0.75 0.78,-0.77 0.75,-0.78 50.68,-53.92 43.55,-43.54 1.18,-1.22 1.14,-1.25 1.1,-1.27 1.05,-1.31 1.02,-1.32 0.97,-1.36 0.93,-1.38 0.88,-1.4 0.84,-1.42 0.8,-1.44 0.75,-1.46 0.71,-1.48 0.67,-1.5 0.62,-1.52 0.57,-1.53 0.54,-1.55 0.48,-1.56 0.44,-1.57 0.4,-1.58 0.35,-1.59 0.3,-1.61 0.26,-1.61 0.21,-1.62 0.16,-1.62 0.12,-1.63 0.07,-1.64 0.03,-1.63 -0.03,-1.64 -0.07,-1.65 -0.12,-1.64 -0.17,-1.64 -0.21,-1.63 -0.27,-1.64 -0.31,-1.63 -0.36,-1.63 -0.41,-1.62 -0.46,-1.61 -0.51,-1.6 -0.56,-1.6 -0.61,-1.58 -4.21,-10.47 -0.46,-1.15 -0.43,-1.16 -0.43,-1.16 -0.4,-1.16 -0.39,-1.17 -0.37,-1.18 -0.36,-1.18 -0.34,-1.18 -0.33,-1.19 -0.31,-1.19 -0.29,-1.19 -0.27,-1.2 -0.26,-1.2 -0.25,-1.2 -0.22,-1.21 -0.21,-1.21 -0.2,-1.21 -0.18,-1.21 -0.16,-1.22 -0.14,-1.22 -0.13,-1.22 -0.12,-1.22 -0.09,-1.22 -0.08,-1.22 -0.07,-1.23 -0.04,-1.23 -0.03,-1.22 -0.02,-1.23 0.01,-1.23 0.02,-1.23 0.03,-1.23 0.06,-1.23 0.07,-1.23 0.08,-1.22 0.1,-1.23 0.12,-1.23 0.14,-1.23 0.15,-1.22 0.17,-1.23 0.19,-1.22 0.18,-1.05 0.22,-1.04 0.26,-1.02 0.28,-1.01 0.32,-1 0.35,-0.98 0.38,-0.97 0.41,-0.94 0.44,-0.94 0.46,-0.91 0.5,-0.9 0.53,-0.88 0.55,-0.86 0.58,-0.84 0.6,-0.82 0.63,-0.79 0.65,-0.78 0.68,-0.76 0.7,-0.73 0.73,-0.71 0.75,-0.69 0.77,-0.66 0.79,-0.64 0.81,-0.61 0.83,-0.59 0.85,-0.56 0.87,-0.53 0.89,-0.5 0.9,-0.48 0.92,-0.45 0.94,-0.42 0.96,-0.39 0.97,-0.35 0.98,-0.33 1,-0.3 1.01,-0.26 1.02,-0.23 1.04,-0.2 1.05,-0.16 1.06,-0.13 302.25,-31.82 0.37,-0.03 0.37,-0.01 h 0.37 z M 179,614.05 l 0.01,-0.28 v -0.08 l -0.01,-0.5 -0.02,1.53 z M 89.36,532 l -0.43,0.12 -0.88,0.24 1.77,-0.47 -0.33,0.08 z M 556,137 l -245.67,23.13 -0.57,0.06 -0.56,0.08 -0.55,0.1 -0.56,0.11 -0.54,0.13 -0.54,0.15 -0.53,0.17 -0.52,0.18 -0.52,0.19 -0.51,0.21 -0.5,0.23 -0.49,0.24 -0.49,0.26 -0.47,0.27 -0.47,0.29 -0.46,0.29 -0.44,0.32 -0.44,0.32 -0.43,0.34 -0.41,0.35 -0.41,0.37 -0.39,0.37 -0.39,0.39 -0.37,0.4 -0.35,0.42 -0.35,0.42 -0.33,0.43 -0.32,0.45 -0.31,0.45 -0.29,0.47 -0.28,0.48 -0.27,0.48 -0.25,0.5 -0.23,0.5 -0.22,0.51 -0.21,0.52 -0.18,0.53 -0.18,0.54 -0.15,0.55 -0.14,0.55 -0.18,0.79 -0.16,0.79 -0.15,0.79 -0.14,0.79 -0.12,0.79 -0.1,0.79 -0.1,0.8 -0.08,0.79 -0.06,0.8 -0.05,0.8 -0.04,0.79 -0.03,0.8 -0.01,0.8 0.01,0.79 0.01,0.8 0.03,0.79 0.05,0.8 0.06,0.79 0.07,0.79 0.09,0.79 0.09,0.79 0.12,0.79 0.12,0.78 0.14,0.79 0.16,0.78 0.16,0.78 0.19,0.77 0.19,0.77 0.21,0.77 0.22,0.77 0.23,0.76 0.25,0.76 0.26,0.76 0.28,0.75 0.28,0.75 0.31,0.74 0.31,0.74 0.33,0.73 0.34,0.73 0.35,0.73 9.36,18.72 0.8,1.66 0.74,1.68 0.68,1.69 0.63,1.71 0.56,1.72 0.51,1.73 0.45,1.74 0.4,1.75 0.33,1.75 0.28,1.76 0.23,1.76 0.17,1.77 0.11,1.76 0.06,1.77 v 1.77 l -0.06,1.76 -0.1,1.76 -0.17,1.75 -0.22,1.75 -0.27,1.74 -0.32,1.73 -0.39,1.72 -0.43,1.7 -0.49,1.7 -0.54,1.68 -0.59,1.66 -0.64,1.64 -0.7,1.63 -0.75,1.61 -0.81,1.58 -0.85,1.57 -0.91,1.54 -0.95,1.51 -1.01,1.49 -1.06,1.46 -1.11,1.43 -1.16,1.4 -1.21,1.36 -1.26,1.34 -1.31,1.3 -60.24,57.88 118.79,118.8 61.58,-64.76 0.92,-0.95 0.96,-0.91 0.97,-0.87 1,-0.84 1.02,-0.8 1.04,-0.77 1.07,-0.73 1.08,-0.7 1.1,-0.66 1.11,-0.62 1.14,-0.59 1.15,-0.55 1.16,-0.51 1.18,-0.47 1.19,-0.44 1.2,-0.4 1.21,-0.37 1.22,-0.32 1.24,-0.29 1.24,-0.25 1.24,-0.21 1.25,-0.17 1.26,-0.13 1.26,-0.1 1.27,-0.05 1.27,-0.02 1.27,0.02 1.27,0.07 1.27,0.1 1.26,0.14 1.27,0.18 1.26,0.22 1.26,0.27 1.26,0.3 1.24,0.34 1.24,0.39 1.24,0.43 1.22,0.46 1.21,0.51 1.21,0.55 44.97,21.45 0.6,0.27 0.59,0.27 0.6,0.27 0.6,0.25 0.61,0.25 0.61,0.24 0.61,0.23 0.61,0.22 0.62,0.22 0.61,0.2 0.62,0.2 0.63,0.2 0.62,0.18 0.63,0.18 0.63,0.16 0.63,0.16 0.63,0.15 0.63,0.15 0.64,0.13 0.64,0.13 0.64,0.12 0.64,0.11 0.64,0.1 0.64,0.1 0.65,0.09 0.65,0.07 0.64,0.08 0.65,0.06 0.65,0.05 0.65,0.05 0.65,0.04 0.65,0.02 0.65,0.03 0.66,0.01 h 0.65 0.65 l 0.66,-0.01 0.65,-0.02 0.66,-0.03 0.65,-0.04 0.63,-0.05 0.62,-0.07 0.62,-0.1 0.6,-0.12 0.6,-0.13 0.6,-0.16 0.58,-0.18 0.57,-0.2 0.57,-0.22 0.55,-0.24 0.55,-0.25 0.53,-0.28 0.53,-0.29 0.51,-0.31 0.5,-0.33 0.49,-0.34 0.47,-0.36 0.46,-0.38 0.45,-0.39 0.44,-0.41 0.42,-0.42 0.4,-0.43 0.39,-0.45 0.38,-0.47 0.36,-0.47 0.34,-0.49 0.33,-0.5 0.3,-0.52 0.3,-0.52 0.27,-0.54 0.25,-0.55 0.24,-0.56 0.22,-0.56 0.19,-0.58 0.18,-0.59 0.16,-0.59 0.13,-0.61 0.12,-0.61 0.09,-0.62 0.07,-0.63 23.63,-248.74 0.06,-0.75 0.02,-0.75 -0.02,-0.74 -0.04,-0.74 -0.08,-0.72 -0.12,-0.72 -0.14,-0.7 -0.17,-0.69 -0.2,-0.69 -0.24,-0.66 -0.26,-0.66 -0.28,-0.64 -0.32,-0.63 -0.34,-0.61 -0.36,-0.59 -0.39,-0.58 -0.41,-0.56 -0.44,-0.54 -0.46,-0.52 -0.48,-0.5 -0.5,-0.48 -0.52,-0.46 -0.54,-0.43 -0.56,-0.42 -0.58,-0.39 -0.59,-0.36 -0.61,-0.34 -0.62,-0.32 -0.65,-0.29 -0.65,-0.26 -0.67,-0.23 -0.68,-0.2 -0.69,-0.17 -0.71,-0.15 -0.71,-0.11 -0.73,-0.08 -0.73,-0.05 -0.74,-0.01 -0.75,0.02 z m -428.5,258.18 -0.29,-0.04 -0.1,-0.02 -0.58,-0.03 -1.09,-0.07 2.35,0.18 z m 21.68,-62.53 -0.07,-0.48 -0.03,-0.15 -0.02,-0.37 -0.04,-0.54 -0.05,-0.55 0.27,2.57 z m -10.57,-11.89 -0.56,-0.07 v 0 l -0.37,-0.08 -0.48,-0.08 1.98,0.3 z" />
    <path
       id="d8cfmPSHw"
       d="m 339.7,353.3 c -9.76,9.76 -25.6,9.76 -35.36,0 -9.76,-9.75 -9.76,-25.59 0,-35.35 9.76,-9.76 25.6,-9.76 35.36,0 9.75,9.76 9.75,25.6 0,35.35 z" />
    <path
       id="b1DClPzHfK"
       d="m 380.36,393.26 c -9.18,9.17 -24.07,9.17 -33.24,0 -9.17,-9.18 -9.17,-24.07 0,-33.24 9.17,-9.17 24.06,-9.17 33.24,0 9.17,9.17 9.17,24.06 0,33.24 z" />
  </defs>
  <path
     id="path49-2-1"
     d="m 525.75137,20.371069 c -9.93599,64.693596 -28.8414,257.478421 -29.02759,270.090851 -0.18611,12.61241 -12.69441,33.65821 -41.1372,23.44532 -28.4428,-10.21289 -61.3254,-35.76683 -83.48013,-14.67464 -10.9992,8.6839 -61.66691,60.43686 -61.66691,60.43686 L 186.14783,235.31071 c 0,0 51.75296,-50.66768 60.43685,-61.66689 21.09219,-22.15466 -4.46173,-55.03731 -14.67463,-83.480102 -10.21289,-28.442791 11.96764,-40.951057 24.58005,-41.137203 12.61242,-0.186132 204.26147,-19.090589 268.95507,-29.02652"
     style="fill:none;fill-opacity:1;stroke:#ffffff;stroke-width:40;stroke-linecap:round;stroke-linejoin:miter;stroke-miterlimit:4;stroke-dasharray:none;stroke-opacity:1" />
  <path
     style="fill:none;stroke:#ffffff;stroke-width:40;stroke-linecap:round;stroke-linejoin:miter;stroke-miterlimit:4;stroke-dasharray:none;stroke-opacity:1"
     d="m 37.714186,365.93992 c -4.39498,3.48021 -11.800962,9.49737 -14.205811,15.30472 -3.75444,9.06682 -3.849637,12.83922 -3.459102,17.83019 0.391638,5.00423 2.836431,16.65669 10.598449,22.07253 6.41541,4.4761 13.687953,9.29328 22.233509,9.39768 3.167103,0.039 11.242382,0.15976 17.990705,-3.0098 5.301265,-2.48964 17.196491,-12.01494 23.002042,-17.44121 L 226.86062,277.65569"
     id="path936-7"/>
  <path
     id="path936-7-4"
     d="m 179.84984,508.07529 c -3.4801,4.39509 -9.49733,11.80115 -15.30466,14.20601 -9.06686,3.75455 -12.83914,3.84971 -17.83005,3.45911 -5.00439,-0.39166 -16.65685,-2.83632 -22.07269,-10.59847 -4.47611,-6.41529 -9.29314,-13.68796 -9.39781,-22.23364 -0.0391,-3.16701 -0.15969,-11.24232 3.00988,-17.99077 2.4898,-5.30096 12.0151,-17.19619 17.44143,-23.00182 L 268.13413,318.9292"
     style="fill:none;stroke:#ffffff;stroke-width:40;stroke-linecap:round;stroke-linejoin:miter;stroke-miterlimit:4;stroke-dasharray:none;stroke-opacity:1" />
  <path
     id="path936-7-2"
     d="m 80.84596,238.90263 c -4.3951,3.48008 -11.801138,9.49748 -14.20569,15.3047 -3.754603,9.06694 -3.849999,12.83928 -3.459202,17.83023 0.391702,5.0043 2.836375,16.65663 10.598505,22.07258 6.415297,4.47613 13.687898,9.29323 22.233566,9.39774 3.166976,0.039 11.242131,0.15965 17.990701,-3.0098 5.30104,-2.48973 17.19618,-12.01497 23.00193,-17.44132 l 48.32955,-46.92637"
     style="fill:none;stroke:#ffffff;stroke-width:40;stroke-linecap:round;stroke-linejoin:miter;stroke-miterlimit:4;stroke-dasharray:none;stroke-opacity:1" />
  <path
     style="fill:none;stroke:#ffffff;stroke-width:40;stroke-linecap:round;stroke-linejoin:miter;stroke-miterlimit:4;stroke-dasharray:none;stroke-opacity:1"
     d="m 306.8872,464.94386 c -3.48009,4.3951 -9.49753,11.8011 -15.30484,14.20584 -9.06687,3.75453 -12.83919,3.84981 -17.8301,3.45905 -5.0043,-0.39157 -16.65668,-2.83628 -22.0727,-10.59834 -4.47612,-6.41529 -9.29322,-13.68788 -9.39758,-22.23354 -0.039,-3.16709 -0.15992,-11.24227 3.00972,-17.99079 2.48966,-5.3011 12.0151,-17.19633 17.44137,-23.00188 l 46.92633,-48.32973"
     id="path936-7-2-7"/>
  <g
     id="g873"
     transform="translate(0,50)"
     style="stroke:#ffffff;stroke-opacity:1;fill:#ffffff;fill-opacity:1">
    <circle
       r="8.612833"
       cy="166.27254"
       cx="284.9548"
       id="path854"
       style="fill:#ffffff;fill-opacity:1;stroke:#ffffff;stroke-width:30.3842;stroke-linecap:round;stroke-opacity:1" />
    <circle
       style="fill:#ffffff;fill-opacity:1;stroke:#ffffff;stroke-width:30.3842;stroke-linecap:round;stroke-opacity:1"
       id="path854-6"
       cx="331.75732"
       cy="213.38687"
       r="8.612833" />
  </g>
</svg>
